<svg xmlns="http://www.w3.org/2000/svg" id="Camada_2" viewBox="0 0 496 496"><defs><style/></defs><g id="Camada_1-2" data-name="Camada_1"><g><path class="cls-1" d="M467.64,112.37c2.86-7.81,4.34-16.05,4.36-24.37,0-48.52-50.24-88-112-88s-112,39.48-112,88c.02,8.18,1.44,16.3,4.22,24H32C14.33,112,0,126.33,0,144v248c0,17.67,14.33,32,32,32h165.75l-4,16h-17.75c-13.25,0-24,10.75-24,24v24c0,4.42,3.58,8,8,8h176c4.42,0,8-3.58,8-8v-24c0-13.25-10.75-24-24-24h-17.75l-4-16h165.75c17.67,0,32-14.33,32-32v-248c-.05-16.21-12.25-29.82-28.36-31.63ZM464,128c8.84,0,16,7.16,16,16v96h-144v-66.18c.73.12,1.43.3,2.17.41l14.67,29.34c1.97,3.95,6.77,5.56,10.73,3.59,1.56-.78,2.82-2.04,3.59-3.59l14.67-29.34c31.36-3.69,59.69-20.49,77.98-46.23h4.19ZM392,304c0-8.84,7.16-16,16-16s16,7.16,16,16-7.16,16-16,16-16-7.16-16-16ZM408,336c17.67,0,32,14.33,32,32h-64c0-17.67,14.33-32,32-32ZM431.14,325.98c12.2-12.78,11.74-33.04-1.05-45.24s-33.04-11.74-45.24,1.05c-11.81,12.37-11.81,31.83,0,44.2-15.32,8.43-24.85,24.53-24.86,42.02h-24v-112h144v112h-24c-.01-17.49-9.53-33.59-24.86-42.02ZM232,304c0-8.84,7.16-16,16-16s16,7.16,16,16-7.16,16-16,16-16-7.16-16-16ZM248,336c17.67,0,32,14.33,32,32h-64c0-17.67,14.33-32,32-32ZM271.14,325.98c12.2-12.78,11.74-33.04-1.05-45.24s-33.04-11.74-45.24,1.05c-11.81,12.37-11.81,31.83,0,44.2-15.32,8.43-24.85,24.53-24.86,42.02h-24v-112h144v112h-24c-.01-17.49-9.53-33.59-24.86-42.02ZM72,304c0-8.84,7.16-16,16-16s16,7.16,16,16-7.16,16-16,16-16-7.16-16-16ZM88,336c17.67,0,32,14.33,32,32H56c0-17.67,14.33-32,32-32ZM111.14,325.98c12.2-12.78,11.74-33.04-1.05-45.24-12.78-12.2-33.04-11.74-45.24,1.05-11.81,12.37-11.81,31.83,0,44.2-15.32,8.43-24.85,24.53-24.86,42.02h-24v-112h144v112h-24c-.01-17.49-9.53-33.59-24.86-42.02ZM72,176c0-8.84,7.16-16,16-16s16,7.16,16,16-7.16,16-16,16-16-7.16-16-16ZM88,208c17.67,0,32,14.33,32,32H56c0-17.67,14.33-32,32-32ZM232,176c0-8.84,7.16-16,16-16s16,7.16,16,16-7.16,16-16,16-16-7.16-16-16ZM248,208c17.67,0,32,14.33,32,32h-64c0-17.67,14.33-32,32-32ZM360,16c52.94,0,96,32.3,96,72,0,34.8-34.58,65.3-80.42,70.95-2.66.33-4.98,1.96-6.18,4.36l-9.4,18.8-9.4-18.8c-1.2-2.4-3.52-4.03-6.18-4.36-45.85-5.66-80.42-36.15-80.42-70.95,0-39.7,43.06-72,96-72ZM320,170.15v69.85h-24c-.01-17.49-9.53-33.59-24.86-42.02,12.2-12.78,11.74-33.04-1.05-45.24-12.78-12.2-33.04-11.74-45.24,1.05-11.81,12.37-11.81,31.83,0,44.2-15.32,8.43-24.85,24.53-24.86,42.02h-24v-112h84.19c14.3,20.7,35.5,35.65,59.81,42.15ZM32,128h128v112h-24c-.01-17.49-9.53-33.59-24.86-42.02,12.2-12.78,11.74-33.04-1.05-45.24-12.78-12.2-33.04-11.74-45.24,1.05-11.81,12.37-11.81,31.83,0,44.2-15.32,8.43-24.85,24.53-24.86,42.02h-24v-96c0-8.84,7.16-16,16-16ZM328,464v16h-160v-16c0-4.42,3.58-8,8-8h144c4.42,0,8,3.58,8,8ZM285.75,440h-75.5l4-16h67.5l4,16ZM464,408H32c-8.84,0-16-7.16-16-16v-8h464v8c0,8.84-7.16,16-16,16Z"/><path class="cls-1" d="M304,80h16v16h-16v-16ZM336,80h16v16h-16v-16ZM368,80h16v16h-16v-16ZM400,80h16v16h-16v-16Z"/></g></g></svg>