<svg xmlns="http://www.w3.org/2000/svg" id="Camada_2" viewBox="0 0 512 512"><defs><style/></defs><g id="Camada_1-2" data-name="Camada_1"><g><path class="cls-1" d="M346,23.94h-72.83v-13.94c0-5.52-4.48-10-10-10H112.83c-5.52,0-10,4.48-10,10v13.94H30C13.46,23.94,0,37.4,0,53.94v428.06c0,16.54,13.46,30,30,30h88.2c5.52,0,10-4.48,10-10s-4.48-10-10-10H30c-5.52,0-10-4.48-10-10V53.94c0-5.51,4.48-10,10-10h72.83v.81c0,17.23,14.02,31.25,31.25,31.25h107.83c17.23,0,31.25-14.02,31.25-31.25v-.81h72.84c5.52,0,10,4.49,10,10v375.06h-33c-16.54,0-30,13.46-30,30v33h-94.79c-5.52,0-10,4.48-10,10s4.48,10,10,10h104.79c2.65,0,5.2-1.05,7.07-2.93l63-63c1.88-1.87,2.93-4.42,2.93-7.07V53.94c0-16.54-13.46-30-30-30h0ZM253.17,44.75c0,6.2-5.05,11.25-11.25,11.25h-107.84c-6.2,0-11.25-5.05-11.25-11.25v-24.75h130.33v24.75h0ZM323,449h18.86l-28.86,28.86v-18.86c0-5.52,4.48-10,10-10Z"/><path class="cls-1" d="M93.94,315.51c-3.9-3.9-10.23-3.91-14.14,0,0,0,0,0,0,0-3.91,3.9-3.91,10.23,0,14.14l16.36,16.36c1.95,1.95,4.51,2.93,7.07,2.93s5.12-.98,7.07-2.93l38.05-38.05c3.91-3.91,3.91-10.24,0-14.14-3.91-3.9-10.24-3.9-14.14,0l-30.98,30.98-9.29-9.29ZM187.63,348.81h50.78c5.52,0,10-4.48,10-10s-4.48-10-10-10h-50.78c-5.52,0-10,4.48-10,10s4.48,10,10,10ZM289.2,288.81h-101.56c-5.52,0-10,4.48-10,10s4.48,10,10,10h101.56c5.52,0,10-4.48,10-10s-4.48-10-10-10ZM79.81,422.65l16.36,16.36c1.87,1.88,4.42,2.93,7.07,2.93,2.65,0,5.2-1.05,7.07-2.93l38.05-38.05c3.91-3.91,3.91-10.24,0-14.14-3.9-3.9-10.23-3.9-14.14,0l-30.98,30.98-9.29-9.29c-3.91-3.91-10.24-3.91-14.14,0-3.9,3.91-3.9,10.24,0,14.14h0ZM248.41,431.81c0-5.52-4.48-10-10-10h-50.78c-5.52,0-10,4.48-10,10s4.48,10,10,10h50.78c5.52,0,10-4.48,10-10ZM187.63,401.81h101.56c5.52,0,10-4.48,10-10s-4.48-10-10-10h-101.56c-5.52,0-10,4.48-10,10s4.48,10,10,10ZM158.21,492c-2.64,0-5.21,1.07-7.08,2.93-1.86,1.86-2.93,4.44-2.93,7.07s1.07,5.21,2.93,7.07c1.88,1.87,4.43,2.92,7.08,2.93,2.63,0,5.21-1.07,7.07-2.93s2.92-4.44,2.92-7.07-1.06-5.21-2.92-7.07c-1.88-1.87-4.42-2.92-7.07-2.93h0ZM251.86,137.83l-59.05-32.43c-3-1.64-6.63-1.64-9.62,0l-59.05,32.43c-3.2,1.76-5.19,5.12-5.19,8.77v64.84c0,3.65,1.99,7.01,5.19,8.77l59.05,32.42c1.5.82,3.16,1.23,4.81,1.23s3.31-.41,4.81-1.23l59.05-32.42c3.2-1.76,5.19-5.12,5.19-8.77v-64.84c0-3.65-1.99-7.01-5.19-8.77h0ZM188.02,167.6l-38.27-21.02,38.25-21,38.27,21.02-38.25,21ZM138.95,163.5l39.08,21.46v42.03l-39.08-21.46v-42.03ZM198.04,226.95v-42.03l39.01-21.42v42.03l-39.01,21.42ZM502,0h-56c-5.52,0-10,4.48-10,10v47.58h-7.57c-17.88,0-32.43,14.55-32.43,32.44v113.5c0,5.52,4.48,10,10,10s10-4.48,10-10v-113.5c0-6.86,5.58-12.43,12.43-12.43h7.57v340.34c0,1.07.17,2.14.51,3.16l28,84.07c1.36,4.08,5.18,6.84,9.49,6.84s8.13-2.76,9.49-6.84l28-84.07c.34-1.02.51-2.09.51-3.16v-135.1c0-5.52-4.48-10-10-10s-10,4.48-10,10v125.1h-36V77.58h36v125.25c0,5.52,4.48,10,10,10s10-4.48,10-10V10c0-5.52-4.48-10-10-10ZM474,470.36l-14.13-42.42h28.26l-14.13,42.42ZM456,57.58V20h36v37.58h-36Z"/><path class="cls-1" d="M502,232.83c-2.63,0-5.21,1.07-7.07,2.93-1.87,1.88-2.92,4.42-2.93,7.07,0,2.64,1.07,5.21,2.93,7.07,1.86,1.87,4.44,2.93,7.07,2.93s5.21-1.06,7.07-2.93c1.86-1.86,2.93-4.43,2.93-7.07,0-2.65-1.06-5.19-2.93-7.07-1.88-1.87-4.42-2.93-7.07-2.93Z"/></g></g></svg>