<svg xmlns="http://www.w3.org/2000/svg" id="Camada_2" viewBox="0 0 409.6 455.11"><defs><style/></defs><g id="Camada_1-2" data-name="Camada_1"><g><path class="cls-1" d="M364.09,91.02v-15.22c0-41.87-33.94-75.8-75.8-75.8H112.36c-21.01,0-41.09,8.71-55.47,24.04L19.91,63.15C6.96,77.26-.15,95.76,0,114.92v264.39C0,421.17,33.94,455.11,75.81,455.11h212.48c41.83-.08,75.73-33.97,75.8-75.8v-9.53l32.14-32.14c8.57-8.5,13.38-20.07,13.37-32.14v-168.96c0-25.14-20.38-45.51-45.51-45.51h0ZM379.31,136.53v30.29h-60.73v-30.29c0-8.4,6.81-15.22,15.22-15.22h30.29c8.4,0,15.22,6.81,15.22,15.22h0ZM288.29,424.82H75.81c-25.14,0-45.51-20.38-45.51-45.51h0V114.92c0-11.51,4.37-22.6,12.23-31l36.55-39.11c8.66-9.12,20.7-14.27,33.28-14.22h175.93c25.14,0,45.51,20.38,45.51,45.51h0s0,14.93,0,14.93c-25.14,0-45.51,20.38-45.51,45.51h0v169.53c-.01,12.07,4.8,23.64,13.37,32.14l32.14,31.57v8.96c.31,25.13-19.81,45.76-44.94,46.08-.19,0-.38,0-.57,0h0ZM375.47,316.73l-25.88,25.88-25.88-25.88c-2.8-2.85-4.38-6.67-4.41-10.67v-108.8h60.73v108.8c-.06,4.01-1.7,7.84-4.55,10.67h0Z"/><path class="cls-1" d="M75.81,121.32h91.02v30.29h-91.02v-30.29ZM75.81,197.26h166.83v30.29H75.81v-30.29ZM75.81,257.85h166.83v30.29H75.81v-30.29ZM75.81,318.58h166.83v30.29H75.81v-30.29Z"/></g></g></svg>